<svg xmlns="http://www.w3.org/2000/svg" xmlns:xlink="http://www.w3.org/1999/xlink" width="400" zoomAndPan="magnify" viewBox="0 0 300 299.999988" height="400" preserveAspectRatio="xMidYMid meet" version="1.0"><defs><g/><clipPath id="8831312ace"><path d="M 60.828125 14.976562 L 224.328125 14.976562 L 224.328125 178.476562 L 60.828125 178.476562 Z M 60.828125 14.976562 " clip-rule="nonzero"/></clipPath><clipPath id="293bca2139"><path d="M 142.464844 96.574219 L 239.140625 96.574219 L 239.140625 216.574219 L 142.464844 216.574219 Z M 142.464844 96.574219 " clip-rule="nonzero"/></clipPath></defs><g clip-path="url(#8831312ace)"><path fill="#1fbdcd" d="M 224.328125 96.726562 C 224.328125 76.90625 217.234375 58.710938 205.453125 44.542969 C 205.378906 44.421875 205.300781 44.300781 205.207031 44.1875 C 205.101562 44.0625 204.984375 43.949219 204.867188 43.84375 C 189.859375 26.195312 167.503906 14.976562 142.578125 14.976562 C 117.648438 14.976562 95.292969 26.195312 80.289062 43.84375 C 80.167969 43.949219 80.054688 44.0625 79.949219 44.1875 C 79.855469 44.300781 79.773438 44.421875 79.699219 44.542969 C 67.921875 58.710938 60.828125 76.90625 60.828125 96.726562 C 60.828125 117.890625 68.910156 137.199219 82.152344 151.734375 C 82.179688 151.773438 82.207031 151.816406 82.238281 151.855469 C 82.394531 152.066406 82.578125 152.246094 82.777344 152.402344 C 97.710938 168.433594 118.992188 178.476562 142.578125 178.476562 C 166.160156 178.476562 187.4375 168.4375 202.371094 152.410156 C 202.570312 152.25 202.757812 152.066406 202.917969 151.855469 C 202.949219 151.816406 202.972656 151.773438 203 151.734375 C 216.242188 137.199219 224.328125 117.890625 224.328125 96.726562 Z M 191.53125 140.714844 C 197.046875 128.546875 200.167969 114.507812 200.550781 99.796875 L 218.117188 99.796875 C 217.414062 117.339844 210.707031 133.363281 199.992188 145.863281 C 197.332031 144.003906 194.503906 142.285156 191.53125 140.714844 Z M 85.160156 145.863281 C 74.449219 133.363281 67.738281 117.339844 67.035156 99.796875 L 84.601562 99.796875 C 84.984375 114.507812 88.105469 128.546875 93.621094 140.714844 C 90.648438 142.285156 87.820312 144.003906 85.160156 145.863281 Z M 82.816406 50.464844 C 85.683594 52.644531 88.765625 54.648438 92.027344 56.464844 C 87.503906 67.738281 84.945312 80.425781 84.601562 93.65625 L 67.035156 93.65625 C 67.6875 77.429688 73.472656 62.503906 82.816406 50.464844 Z M 218.117188 93.65625 L 200.550781 93.65625 C 200.207031 80.425781 197.648438 67.738281 193.125 56.464844 C 196.386719 54.648438 199.46875 52.644531 202.339844 50.464844 C 211.679688 62.503906 217.464844 77.429688 218.117188 93.65625 Z M 194.40625 93.65625 L 169.328125 93.65625 C 169.21875 84.0625 168.597656 74.761719 167.511719 66.09375 C 174.625 64.484375 181.394531 62.191406 187.628906 59.273438 C 191.640625 69.488281 194.0625 81.1875 194.40625 93.65625 Z M 145.648438 171.253906 L 145.648438 135.378906 C 150.46875 135.515625 155.230469 135.96875 159.875 136.726562 C 158.910156 142.03125 157.746094 146.984375 156.394531 151.476562 C 153.351562 161.574219 149.4375 168.664062 145.648438 171.253906 Z M 128.761719 151.476562 C 127.40625 146.984375 126.242188 142.03125 125.277344 136.726562 C 129.921875 135.96875 134.6875 135.515625 139.507812 135.378906 L 139.507812 171.253906 C 135.714844 168.664062 131.800781 161.574219 128.761719 151.476562 Z M 139.507812 22.199219 L 139.507812 62.65625 C 134.410156 62.515625 129.394531 62.023438 124.527344 61.199219 C 125.613281 54.1875 127.035156 47.707031 128.761719 41.976562 C 131.800781 31.878906 135.714844 24.785156 139.507812 22.199219 Z M 156.394531 41.976562 C 158.121094 47.707031 159.539062 54.1875 160.628906 61.199219 C 155.757812 62.023438 150.746094 62.515625 145.648438 62.65625 L 145.648438 22.199219 C 149.4375 24.785156 153.351562 31.878906 156.394531 41.976562 Z M 139.507812 68.800781 L 139.507812 93.65625 L 121.96875 93.65625 C 122.074219 84.46875 122.660156 75.570312 123.679688 67.28125 C 128.832031 68.144531 134.128906 68.65625 139.507812 68.800781 Z M 139.507812 99.796875 L 139.507812 129.238281 C 134.355469 129.375 129.261719 129.859375 124.285156 130.671875 C 122.890625 121.136719 122.09375 110.671875 121.96875 99.796875 Z M 145.648438 129.238281 L 145.648438 99.796875 L 163.183594 99.796875 C 163.058594 110.671875 162.265625 121.136719 160.867188 130.671875 C 155.894531 129.859375 150.796875 129.375 145.648438 129.238281 Z M 145.648438 93.65625 L 145.648438 68.800781 C 151.023438 68.65625 156.320312 68.144531 161.472656 67.28125 C 162.496094 75.570312 163.078125 84.46875 163.183594 93.65625 Z M 166.652344 60 C 165.523438 52.796875 164.054688 46.121094 162.273438 40.207031 C 160.128906 33.085938 157.640625 27.417969 154.871094 23.269531 C 167.34375 27.703125 178.058594 38.722656 185.183594 53.648438 C 179.453125 56.347656 173.21875 58.480469 166.652344 60 Z M 130.28125 23.269531 C 127.511719 27.417969 125.023438 33.085938 122.878906 40.207031 C 121.097656 46.121094 119.628906 52.796875 118.5 60 C 111.9375 58.480469 105.703125 56.347656 99.96875 53.648438 C 107.09375 38.722656 117.8125 27.703125 130.28125 23.269531 Z M 117.640625 66.09375 C 116.554688 74.761719 115.9375 84.0625 115.828125 93.65625 L 90.746094 93.65625 C 91.089844 81.1875 93.511719 69.488281 97.523438 59.273438 C 103.757812 62.191406 110.527344 64.484375 117.640625 66.09375 Z M 90.746094 99.796875 L 115.828125 99.796875 C 115.957031 111.058594 116.789062 121.921875 118.253906 131.828125 C 111.539062 133.3125 105.113281 135.398438 99.148438 138.039062 C 94.171875 126.957031 91.132812 113.867188 90.746094 99.796875 Z M 119.25 137.886719 C 120.253906 143.40625 121.46875 148.5625 122.878906 153.246094 C 125.023438 160.367188 127.511719 166.035156 130.28125 170.183594 C 118.878906 166.128906 108.9375 156.566406 101.871094 143.542969 C 107.296875 141.15625 113.140625 139.253906 119.25 137.886719 Z M 154.871094 170.183594 C 157.640625 166.035156 160.128906 160.367188 162.273438 153.246094 C 163.683594 148.5625 164.898438 143.40625 165.902344 137.886719 C 172.011719 139.253906 177.855469 141.15625 183.285156 143.542969 C 176.21875 156.566406 166.277344 166.128906 154.871094 170.183594 Z M 166.898438 131.828125 C 168.367188 121.921875 169.199219 111.058594 169.328125 99.796875 L 194.40625 99.796875 C 194.019531 113.867188 190.984375 126.957031 186.003906 138.039062 C 180.039062 135.398438 173.613281 133.3125 166.898438 131.828125 Z M 198.378906 45.765625 C 195.957031 47.585938 193.371094 49.277344 190.636719 50.828125 C 188.675781 46.757812 186.445312 42.910156 183.949219 39.332031 C 180.933594 35.015625 177.636719 31.234375 174.113281 28.015625 C 183.355469 32.273438 191.59375 38.339844 198.378906 45.765625 Z M 111.039062 28.015625 C 107.519531 31.234375 104.222656 35.015625 101.207031 39.332031 C 98.707031 42.910156 96.476562 46.757812 94.515625 50.828125 C 91.785156 49.277344 89.199219 47.585938 86.773438 45.765625 C 93.558594 38.339844 101.800781 32.273438 111.039062 28.015625 Z M 89.382812 150.40625 C 91.585938 148.90625 93.914062 147.507812 96.347656 146.21875 C 97.835938 148.972656 99.457031 151.613281 101.207031 154.121094 C 104.222656 158.4375 107.519531 162.21875 111.039062 165.4375 C 102.953125 161.710938 95.632812 156.597656 89.382812 150.40625 Z M 183.949219 154.121094 C 185.699219 151.613281 187.316406 148.972656 188.804688 146.21875 C 191.238281 147.507812 193.566406 148.90625 195.769531 150.40625 C 189.519531 156.597656 182.199219 161.710938 174.113281 165.4375 C 177.636719 162.21875 180.933594 158.4375 183.949219 154.121094 Z M 183.949219 154.121094 " fill-opacity="1" fill-rule="nonzero"/></g><g clip-path="url(#293bca2139)"><path fill="#1fbdcd" d="M 239.144531 151.632812 L 142.464844 96.570312 L 155.703125 205.9375 L 182.109375 175.96875 L 182.246094 175.878906 L 208.71875 216.585938 L 227.394531 204.445312 L 200.800781 163.550781 L 200.917969 163.472656 L 239.144531 151.632812 " fill-opacity="1" fill-rule="nonzero"/></g><g fill="#ff914d" fill-opacity="1"><g transform="translate(97.421877, 246.372753)"><g><path d="M 7.328125 -0.960938 L 7.582031 -0.257812 L 8.253906 0 L 8.894531 0.03125 L 9.46875 -0.03125 L 10.460938 0.03125 L 11.359375 -0.03125 L 12 0.03125 L 12.636719 -0.320312 L 12.894531 -0.992188 L 12.988281 -4.703125 L 12.925781 -5.34375 L 12.925781 -5.984375 L 13.023438 -6.558594 L 12.988281 -8.414062 L 13.183594 -9.34375 L 13.5 -10.175781 L 17.566406 -16.863281 L 17.949219 -17.308594 L 19.996094 -20.699219 L 20.347656 -21.5 L 20.222656 -22.203125 L 19.644531 -22.332031 L 18.398438 -22.363281 L 17.726562 -22.300781 L 17.085938 -22.398438 L 15.835938 -22.363281 L 15.292969 -22.398438 L 14.429688 -22.078125 L 13.855469 -21.53125 L 13.023438 -20.15625 L 12.636719 -19.195312 L 11.933594 -18.171875 L 11.613281 -17.5 L 11.292969 -16.957031 L 10.75 -15.742188 L 10.335938 -15.199219 L 9.984375 -15.199219 L 9.628906 -15.804688 L 9.277344 -16.316406 L 8.320312 -18.109375 L 7.964844 -18.652344 L 6.464844 -21.46875 L 5.792969 -22.078125 L 5.054688 -22.363281 L 4.382812 -22.332031 L 3.839844 -22.460938 L 2.207031 -22.332031 L 0.734375 -22.429688 L 0.0976562 -22.109375 L 0 -21.40625 L 0.320312 -20.667969 L 1.695312 -18.398438 L 2.046875 -17.949219 L 3.359375 -15.675781 L 4.128906 -14.652344 L 4.382812 -14.078125 L 6.847656 -10.175781 L 7.167969 -9.277344 L 7.328125 -8.414062 L 7.292969 -5.886719 L 7.359375 -5.246094 L 7.292969 -2.785156 L 7.359375 -2.175781 Z M 7.328125 -0.960938 "/></g></g></g><g fill="#ff914d" fill-opacity="1"><g transform="translate(117.768876, 246.372753)"><g><path d="M 18.878906 0.0625 L 20.09375 -0.03125 L 20.699219 0.03125 L 21.691406 0 L 22.589844 -0.160156 L 22.683594 -0.929688 L 22.460938 -1.664062 L 21.980469 -2.847656 L 21.117188 -4.511719 L 20.667969 -5.695312 L 20.027344 -6.847656 L 18.8125 -9.757812 L 18.492188 -10.238281 L 18.171875 -10.847656 L 17.980469 -11.550781 L 17.691406 -12.03125 L 17.5 -12.542969 L 16.828125 -13.726562 L 16.605469 -14.398438 L 14.492188 -18.84375 L 14.300781 -19.484375 L 13.949219 -20.0625 L 13.757812 -20.636719 L 13.148438 -21.757812 L 12.605469 -22.332031 L 11.550781 -22.652344 L 10.527344 -22.300781 L 9.949219 -21.757812 L 9.664062 -21.210938 L 9.4375 -20.574219 L 9.152344 -20.125 L 7.871094 -17.179688 L 7.519531 -16.703125 L 7.359375 -16.0625 L 7.007812 -15.453125 L 6.816406 -14.878906 L 3.550781 -8.03125 L 3.359375 -7.328125 L 3.039062 -6.847656 L 2.816406 -6.207031 L 2.238281 -5.183594 L 1.757812 -3.902344 L 1.40625 -3.457031 L 1.246094 -2.878906 L 0.609375 -1.601562 L 0.414062 -0.960938 L 0.574219 -0.160156 L 1.214844 0.03125 L 2.464844 -0.03125 L 3.101562 0.03125 L 4.894531 -0.03125 L 5.632812 -0.257812 L 6.238281 -0.832031 L 6.816406 -1.886719 L 7.421875 -2.496094 L 8.09375 -2.847656 L 8.703125 -2.75 L 10.046875 -2.878906 L 10.621094 -2.785156 L 13.757812 -2.816406 L 14.332031 -2.75 L 15.039062 -2.847656 L 15.742188 -2.496094 L 16.347656 -1.984375 L 16.636719 -1.375 L 16.828125 -0.800781 L 17.46875 -0.320312 L 18.207031 0 Z M 11.613281 -7.902344 L 10.972656 -8.03125 L 10.238281 -7.964844 L 9.726562 -8.191406 L 9.695312 -8.796875 L 11.199219 -12.253906 L 11.550781 -12.542969 L 12 -12.285156 L 13.5 -8.765625 L 13.375 -8.191406 L 12.894531 -7.933594 Z M 11.613281 -7.902344 "/></g></g></g><g fill="#ff914d" fill-opacity="1"><g transform="translate(140.995162, 246.372753)"><g><path d="M 4.289062 0.0976562 L 5.855469 0.03125 L 6.429688 0.0625 L 7.167969 0 L 7.839844 -0.257812 L 8.125 -0.929688 L 8.09375 -1.566406 L 8.125 -2.273438 L 8.0625 -3.457031 L 8.125 -4.0625 L 8.09375 -4.800781 L 8.382812 -5.375 L 9.117188 -5.726562 L 9.824219 -5.792969 L 10.496094 -5.664062 L 13.789062 -5.917969 L 16.828125 -7.136719 L 17.308594 -7.519531 L 17.757812 -8.03125 L 18.171875 -8.445312 L 18.589844 -8.925781 L 19.261719 -9.949219 L 19.804688 -11.199219 L 19.902344 -11.902344 L 20.09375 -12.414062 L 20.15625 -15.039062 L 20.027344 -15.582031 L 19.933594 -16.285156 L 19.550781 -17.46875 L 18.941406 -18.558594 L 18.171875 -19.613281 L 16.734375 -20.859375 L 15.675781 -21.566406 L 14.398438 -21.949219 L 13.855469 -22.171875 L 13.214844 -22.171875 L 12.574219 -22.398438 L 11.613281 -22.429688 L 10.589844 -22.398438 L 9.886719 -22.300781 L 7.933594 -22.332031 L 7.292969 -22.429688 L 5.3125 -22.300781 L 4.605469 -22.332031 L 4.03125 -22.429688 L 3.359375 -22.300781 L 2.6875 -21.949219 L 2.398438 -21.4375 L 2.429688 -17.566406 L 2.304688 -16.285156 L 2.367188 -15.675781 L 2.335938 -7.390625 L 2.398438 -6.78125 L 2.367188 -0.863281 L 2.71875 -0.257812 L 3.710938 0.0625 Z M 9.085938 -10.847656 L 8.445312 -11.230469 L 8.160156 -11.773438 L 8.0625 -14.367188 L 8.125 -15.039062 L 8.125 -16.347656 L 8.445312 -16.957031 L 9.117188 -17.277344 L 12.445312 -17.179688 L 13.085938 -16.894531 L 13.597656 -16.542969 L 14.015625 -16.125 L 14.332031 -15.484375 L 14.429688 -14.910156 L 14.492188 -14.015625 L 14.429688 -13.148438 L 14.207031 -12.574219 L 13.917969 -12.0625 L 13.5 -11.550781 L 12.988281 -11.167969 L 12.476562 -11.007812 L 11.484375 -10.878906 L 9.855469 -10.910156 Z M 9.085938 -10.847656 "/></g></g></g><g fill="#ff914d" fill-opacity="1"><g transform="translate(162.045983, 246.372753)"><g><path d="M 11.132812 0.0976562 L 15.710938 0.03125 L 16.382812 -0.257812 L 16.734375 -0.929688 L 16.734375 -4.160156 L 16.382812 -4.800781 L 15.710938 -5.085938 L 14.972656 -5.023438 L 14.367188 -5.121094 L 12.734375 -5.152344 L 11.679688 -5.023438 L 11.039062 -5.085938 L 10.335938 -5.054688 L 9.726562 -5.152344 L 9.023438 -5.085938 L 8.351562 -5.40625 L 8.09375 -5.984375 L 8.09375 -8 L 8.382812 -8.671875 L 8.957031 -9.023438 L 9.917969 -9.054688 L 10.941406 -8.957031 L 12.15625 -9.023438 L 13.46875 -8.992188 L 14.109375 -9.054688 L 14.84375 -9.023438 L 15.484375 -9.277344 L 15.710938 -9.917969 L 15.804688 -12.796875 L 15.484375 -13.695312 L 14.75 -14.109375 L 12.863281 -14.109375 L 12.191406 -14.046875 L 10.847656 -14.140625 L 8.992188 -14.078125 L 8.320312 -14.367188 L 8.0625 -15.359375 L 8.0625 -16.347656 L 8.351562 -16.957031 L 9.054688 -17.214844 L 9.664062 -17.179688 L 10.269531 -17.308594 L 14.84375 -17.246094 L 15.453125 -17.277344 L 16.125 -17.660156 L 16.445312 -18.238281 L 16.414062 -18.878906 L 16.445312 -19.515625 L 16.382812 -21.4375 L 16.09375 -22.042969 L 15.453125 -22.300781 L 14.78125 -22.300781 L 14.207031 -22.429688 L 11.613281 -22.398438 L 10.910156 -22.332031 L 10.269531 -22.398438 L 9.726562 -22.363281 L 9.085938 -22.429688 L 6.464844 -22.363281 L 5.824219 -22.460938 L 5.214844 -22.332031 L 4.640625 -22.398438 L 4 -22.332031 L 3.359375 -22.363281 L 2.6875 -22.109375 L 2.335938 -21.4375 L 2.398438 -20.222656 L 2.304688 -18.910156 L 2.398438 -18.207031 L 2.335938 -15.070312 L 2.429688 -14.398438 L 2.367188 -13.789062 L 2.335938 -11.167969 L 2.429688 -10.589844 L 2.398438 -5.40625 L 2.335938 -4.800781 L 2.429688 -4.160156 L 2.335938 -1.953125 L 2.398438 -1.246094 L 2.65625 -0.382812 L 3.617188 0.03125 L 5.917969 0.0625 L 6.621094 0 L 7.199219 0.03125 L 8.511719 -0.0625 L 9.117188 0.0625 L 9.855469 0.0976562 L 10.496094 0.03125 Z M 11.132812 0.0976562 "/></g></g></g><g fill="#ff914d" fill-opacity="1"><g transform="translate(180.377471, 246.372753)"><g><path d="M 2.398438 -1.3125 L 2.71875 -0.320312 L 3.648438 0.0976562 L 4.289062 0 L 5.3125 0.0976562 L 5.824219 0.03125 L 6.78125 0.03125 L 7.808594 -0.289062 L 8.09375 -1.214844 L 8.09375 -2.304688 L 8.160156 -2.878906 L 8.0625 -3.550781 L 8.125 -5.597656 L 8.414062 -6.238281 L 9.023438 -6.589844 L 10.878906 -6.335938 L 11.519531 -5.792969 L 11.902344 -5.152344 L 12.15625 -4.574219 L 12.828125 -3.617188 L 13.4375 -2.464844 L 13.789062 -1.984375 L 14.046875 -1.34375 L 14.398438 -0.800781 L 15.101562 -0.222656 L 16.191406 0.0625 L 18.71875 0.03125 L 19.324219 0.0976562 L 20.378906 0.0625 L 20.988281 -0.222656 L 21.179688 -0.929688 L 20.828125 -1.632812 L 20.445312 -2.078125 L 20.1875 -2.6875 L 19.101562 -4.320312 L 18.8125 -4.894531 L 17.789062 -6.558594 L 17.40625 -7.039062 L 17.375 -7.808594 L 17.660156 -8.511719 L 18.109375 -8.992188 L 18.558594 -9.375 L 19.804688 -11.613281 L 20.222656 -13.46875 L 20.15625 -15.484375 L 20.0625 -16.125 L 19.484375 -17.949219 L 19.230469 -18.492188 L 18.878906 -19.003906 L 17.054688 -20.925781 L 15.933594 -21.53125 L 14.71875 -21.949219 L 12.894531 -22.363281 L 11.871094 -22.398438 L 10.941406 -22.332031 L 9.023438 -22.332031 L 8.382812 -22.460938 L 7.742188 -22.460938 L 7.167969 -22.300781 L 6.527344 -22.300781 L 5.886719 -22.429688 L 5.183594 -22.460938 L 3.296875 -22.300781 L 2.71875 -21.980469 L 2.335938 -21.085938 L 2.367188 -13.757812 L 2.429688 -13.117188 L 2.335938 -11.839844 L 2.367188 -11.132812 L 2.367188 -10.496094 L 2.429688 -9.886719 L 2.367188 -9.277344 L 2.335938 -6.6875 L 2.398438 -6.046875 Z M 9.023438 -11.710938 L 8.382812 -12.0625 L 8.125 -12.574219 L 8.125 -14.492188 L 8.0625 -15.039062 L 8.125 -16.382812 L 8.414062 -16.988281 L 9.085938 -17.246094 L 9.726562 -17.214844 L 11.007812 -17.339844 L 11.902344 -17.148438 L 12.734375 -17.085938 L 13.34375 -16.925781 L 14.140625 -15.933594 L 14.332031 -15.421875 L 14.460938 -14.589844 L 14.367188 -13.628906 L 14.078125 -12.988281 L 13.726562 -12.511719 L 13.375 -12.222656 L 12.796875 -11.964844 L 11.871094 -11.742188 L 11.261719 -11.710938 L 9.726562 -11.773438 Z M 9.023438 -11.710938 "/></g></g></g><g fill="#1fbdcd" fill-opacity="1"><g transform="translate(75.94141, 289.122749)"><g><path d="M 11.742188 -25.597656 C 11.804688 -25.46875 11.804688 -25.308594 11.773438 -25.242188 L 7.742188 -15.933594 L 3.742188 -25.242188 C 3.710938 -25.308594 3.679688 -25.46875 3.777344 -25.597656 L 0.542969 -25.597656 C 0.671875 -25.5 0.800781 -25.308594 0.863281 -25.179688 L 6.304688 -12.605469 L 6.304688 -1.792969 C 6.304688 -1.152344 6.207031 -0.351562 6.078125 0 C 6.398438 0 7.070312 0 7.742188 0 L 9.40625 0 C 9.277344 -0.351562 9.183594 -1.152344 9.183594 -1.792969 L 9.183594 -12.605469 L 14.621094 -25.179688 C 14.6875 -25.308594 14.8125 -25.5 14.941406 -25.597656 Z M 11.742188 -25.597656 "/></g></g></g><g fill="#1fbdcd" fill-opacity="1"><g transform="translate(91.457595, 289.122749)"><g><path d="M 12.511719 0 C 12.382812 -0.128906 12.316406 -0.351562 12.316406 -0.480469 C 10.589844 -8.125 9.054688 -16.894531 8.03125 -24.699219 C 8 -24.988281 7.902344 -25.402344 8.0625 -25.597656 L 8 -25.597656 C 7.101562 -25.597656 5.40625 -25.597656 5.054688 -25.597656 L 4.992188 -25.597656 C 5.152344 -25.402344 5.054688 -24.988281 5.023438 -24.699219 C 4 -16.894531 2.464844 -8.125 0.734375 -0.480469 C 0.703125 -0.351562 0.671875 -0.128906 0.542969 0 L 3.582031 0 C 3.488281 -0.222656 3.550781 -0.609375 3.582031 -0.800781 C 3.933594 -3.007812 4.414062 -6.144531 5.023438 -9.757812 C 5.917969 -9.695312 6.941406 -9.664062 8.03125 -9.757812 C 8.636719 -6.144531 9.117188 -3.007812 9.4375 -0.800781 C 9.46875 -0.609375 9.535156 -0.222656 9.46875 0 Z M 5.472656 -12.414062 C 5.792969 -14.269531 6.144531 -16.191406 6.527344 -18.207031 C 6.910156 -16.222656 7.230469 -14.269531 7.550781 -12.445312 C 6.878906 -12.351562 6.175781 -12.351562 5.472656 -12.414062 Z M 5.472656 -12.414062 "/></g></g></g><g fill="#1fbdcd" fill-opacity="1"><g transform="translate(104.54238, 289.122749)"><g><path d="M 6.941406 -25.691406 C 4.253906 -25.851562 1.792969 -25.5 1.121094 -25.179688 C 1.246094 -24.859375 1.28125 -24.570312 1.28125 -24.316406 C 1.375 -22.652344 1.503906 -18.109375 1.503906 -11.773438 C 1.503906 -3.902344 1.28125 -2.078125 1.28125 -1.792969 C 1.28125 -1.152344 1.246094 -0.351562 1.121094 0 L 4.542969 0 C 4.449219 -0.351562 4.289062 -1.085938 4.253906 -1.824219 C 4.191406 -3.742188 4.160156 -8.414062 4.253906 -9.085938 C 4.832031 -8.925781 6.175781 -8.671875 7.488281 -8.671875 C 9.277344 -8.671875 13.757812 -10.109375 13.757812 -17.339844 C 13.757812 -24.605469 9.152344 -25.597656 6.941406 -25.691406 Z M 7.167969 -11.582031 C 6.109375 -11.582031 4.925781 -11.710938 4.253906 -12.0625 C 4.222656 -12.445312 4.191406 -14.046875 4.191406 -16.957031 C 4.191406 -20.027344 4.222656 -22.078125 4.253906 -22.75 C 4.832031 -23.035156 5.632812 -23.132812 6.816406 -23.070312 C 7.550781 -23.003906 10.6875 -22.332031 10.6875 -17.308594 C 10.6875 -12.285156 8.445312 -11.582031 7.167969 -11.582031 Z M 7.167969 -11.582031 "/></g></g></g><g fill="#1fbdcd" fill-opacity="1"><g transform="translate(118.874856, 289.122749)"><g><path d="M 9.34375 -3.007812 L 4.382812 -3.007812 C 4.289062 -4.894531 4.253906 -8.382812 4.382812 -11.230469 L 6.496094 -11.230469 C 7.199219 -11.230469 7.933594 -11.070312 8.320312 -10.972656 C 8.320312 -11.359375 8.320312 -12.09375 8.320312 -12.734375 L 8.320312 -14.492188 C 7.933594 -14.367188 7.199219 -14.207031 6.496094 -14.207031 L 4.382812 -14.207031 C 4.382812 -14.941406 4.320312 -14.972656 4.320312 -18.109375 C 4.320312 -20.316406 4.351562 -21.980469 4.382812 -22.621094 L 9.308594 -22.621094 C 10.046875 -22.621094 10.78125 -22.460938 11.132812 -22.332031 C 11.132812 -22.714844 11.132812 -23.453125 11.132812 -24.09375 L 11.132812 -25.851562 C 10.78125 -25.757812 10.046875 -25.597656 9.308594 -25.597656 L 4.640625 -25.597656 C 4.253906 -25.597656 3.519531 -25.597656 2.878906 -25.597656 L 1.121094 -25.597656 C 1.246094 -25.242188 1.40625 -24.507812 1.40625 -23.773438 C 1.40625 -22.683594 1.441406 -19.484375 1.441406 -14.621094 C 1.441406 -5.34375 1.40625 -2.078125 1.40625 -1.792969 C 1.40625 -1.183594 1.34375 -0.351562 1.214844 0 L 1.3125 0 C 1.40625 0 1.566406 0 1.792969 0 L 9.34375 0 C 10.078125 0 10.8125 0.160156 11.199219 0.257812 C 11.199219 -0.128906 11.199219 -0.863281 11.199219 -1.503906 L 11.199219 -3.261719 C 10.8125 -3.167969 10.078125 -3.007812 9.34375 -3.007812 Z M 9.34375 -3.007812 "/></g></g></g><g fill="#1fbdcd" fill-opacity="1"><g transform="translate(130.647965, 289.122749)"><g><path d="M 14.558594 0 C 14.332031 -0.128906 14.238281 -0.257812 14.238281 -0.414062 C 13.246094 -5.503906 12.476562 -7.550781 10.65625 -10.367188 C 12.285156 -11.484375 13.789062 -13.726562 13.789062 -17.949219 C 13.789062 -25.210938 8.894531 -25.851562 6.71875 -25.851562 C 4.800781 -25.851562 1.824219 -25.722656 1.152344 -25.402344 C 1.28125 -25.117188 1.3125 -24.828125 1.3125 -24.570312 C 1.40625 -23.070312 1.535156 -18.71875 1.535156 -12.382812 C 1.535156 -4.511719 1.3125 -2.078125 1.3125 -1.792969 C 1.28125 -1.152344 1.246094 -0.351562 1.121094 0 L 4.542969 0 C 4.449219 -0.351562 4.320312 -1.085938 4.289062 -1.824219 C 4.222656 -3.742188 4.191406 -9.023438 4.289062 -9.695312 C 4.832031 -9.503906 6.207031 -9.277344 7.519531 -9.277344 L 7.773438 -9.277344 C 9.789062 -6.496094 11.007812 -3.007812 11.007812 -0.351562 C 11.007812 -0.289062 10.972656 -0.128906 10.847656 0 Z M 4.191406 -17.566406 C 4.191406 -20.636719 4.253906 -22.203125 4.289062 -22.523438 C 4.640625 -22.78125 5.917969 -22.84375 6.621094 -22.84375 C 7.808594 -22.84375 10.71875 -22.941406 10.71875 -17.917969 C 10.71875 -12.894531 8.480469 -12.15625 7.199219 -12.15625 C 6.144531 -12.15625 4.960938 -12.316406 4.289062 -12.671875 C 4.253906 -13.054688 4.191406 -14.652344 4.191406 -17.566406 Z M 4.191406 -17.566406 "/></g></g></g><g fill="#1fbdcd" fill-opacity="1"><g transform="translate(145.780245, 289.122749)"><g/></g></g><g fill="#1fbdcd" fill-opacity="1"><g transform="translate(152.562574, 289.122749)"><g><path d="M 0 -14.046875 C 0.128906 -13.535156 0.0976562 -12.316406 0 -11.519531 C 1.792969 -11.613281 5.597656 -11.582031 7.519531 -11.519531 C 7.421875 -12.476562 7.453125 -13.277344 7.519531 -14.046875 C 5.054688 -13.980469 1.632812 -14.046875 0 -14.046875 Z M 0 -14.046875 "/></g></g></g><g fill="#1fbdcd" fill-opacity="1"><g transform="translate(160.080724, 289.122749)"><g/></g></g><g fill="#1fbdcd" fill-opacity="1"><g transform="translate(166.863053, 289.122749)"><g><path d="M 7.199219 -25.597656 L 3.902344 -25.597656 C 3.710938 -25.597656 3.328125 -25.597656 2.785156 -25.597656 L 1.121094 -25.597656 C 1.183594 -25.4375 1.28125 -25.117188 1.28125 -24.828125 C 1.34375 -23.582031 1.441406 -19.582031 1.441406 -13.246094 C 1.441406 -3.457031 1.28125 -2.046875 1.28125 -1.792969 C 1.28125 -1.152344 1.246094 -0.351562 1.121094 0 L 2.785156 0 C 3.199219 0 3.582031 0 3.902344 0 L 7.199219 0 C 11.519531 0 12.957031 -3.359375 12.957031 -12.925781 C 12.957031 -22.492188 11.519531 -25.597656 7.199219 -25.597656 Z M 7.199219 -2.65625 L 4.253906 -2.65625 C 4.289062 -5.375 4.382812 -9.664062 4.382812 -13.246094 C 4.382812 -17.726562 4.289062 -20.957031 4.191406 -22.972656 L 7.199219 -22.972656 C 10.078125 -22.972656 10.300781 -19.355469 10.300781 -12.925781 C 10.300781 -6.464844 10.078125 -2.65625 7.199219 -2.65625 Z M 7.199219 -2.65625 "/></g></g></g><g fill="#1fbdcd" fill-opacity="1"><g transform="translate(180.395725, 289.122749)"><g><path d="M 4.382812 -23.773438 C 4.382812 -24.507812 4.542969 -25.242188 4.640625 -25.597656 C 4.253906 -25.597656 3.519531 -25.597656 2.878906 -25.597656 L 1.121094 -25.597656 C 1.246094 -25.242188 1.40625 -24.507812 1.40625 -23.773438 C 1.472656 -22.972656 1.566406 -19.613281 1.566406 -13.246094 C 1.566406 -3.457031 1.40625 -2.046875 1.40625 -1.792969 C 1.40625 -1.152344 1.34375 -0.351562 1.214844 0 C 1.535156 0 2.207031 0 2.878906 0 L 4.542969 0 C 4.414062 -0.351562 4.382812 -1.152344 4.382812 -1.792969 C 4.382812 -1.917969 4.222656 -7.710938 4.222656 -13.246094 C 4.222656 -19.324219 4.320312 -22.8125 4.382812 -23.773438 Z M 4.382812 -23.773438 "/></g></g></g><g fill="#1fbdcd" fill-opacity="1"><g transform="translate(186.154311, 289.122749)"><g><path d="M 6.367188 0.257812 C 10.429688 0.257812 12.828125 -2.527344 12.828125 -7.230469 C 12.828125 -12 8.480469 -14.71875 5.566406 -16.507812 C 3.808594 -17.597656 3.457031 -18.78125 3.457031 -20.222656 C 3.457031 -21.917969 4.671875 -23.070312 6.496094 -23.070312 C 8.605469 -23.070312 9.535156 -22.269531 9.664062 -20.285156 L 12.445312 -20.476562 C 12.222656 -23.933594 10.109375 -25.851562 6.496094 -25.851562 C 3.136719 -25.851562 0.671875 -23.484375 0.671875 -20.222656 C 0.671875 -17.535156 1.757812 -15.613281 4.09375 -14.140625 C 7.230469 -12.191406 10.078125 -10.207031 10.078125 -7.230469 C 10.078125 -2.527344 7.261719 -2.527344 6.367188 -2.527344 C 3.679688 -2.527344 3.328125 -5.695312 3.296875 -5.824219 L 0.542969 -5.535156 C 0.574219 -5.085938 0.800781 -3.519531 1.824219 -2.078125 C 2.910156 -0.542969 4.480469 0.257812 6.367188 0.257812 Z M 6.367188 0.257812 "/></g></g></g><g fill="#1fbdcd" fill-opacity="1"><g transform="translate(199.559015, 289.122749)"><g><path d="M 10.335938 -25.597656 C 9.917969 -25.597656 9.023438 -25.597656 8.09375 -25.597656 L 2.335938 -25.597656 C 1.695312 -25.597656 0.894531 -25.628906 0.542969 -25.757812 C 0.542969 -25.4375 0.542969 -24.765625 0.542969 -24.09375 L 0.542969 -22.460938 C 0.894531 -22.589844 1.695312 -22.589844 2.335938 -22.621094 C 2.589844 -22.621094 3.519531 -22.683594 4.925781 -22.621094 C 4.960938 -21.277344 5.023438 -18.523438 5.023438 -13.246094 C 5.023438 -3.457031 4.863281 -2.046875 4.863281 -1.792969 C 4.863281 -1.183594 4.832031 -0.320312 4.703125 0.03125 C 5.023438 0.03125 5.695312 0.03125 6.367188 0.03125 L 8 0.03125 C 7.871094 -0.320312 7.839844 -1.183594 7.839844 -1.792969 C 7.839844 -1.917969 7.710938 -7.710938 7.710938 -13.246094 C 7.710938 -18.429688 7.773438 -21.246094 7.808594 -22.621094 C 9.183594 -22.683594 9.695312 -22.652344 10.335938 -22.621094 C 11.070312 -22.589844 11.804688 -22.523438 12.15625 -22.460938 C 12.15625 -22.78125 12.15625 -23.453125 12.15625 -24.09375 L 12.15625 -25.722656 C 11.804688 -25.660156 11.070312 -25.597656 10.335938 -25.597656 Z M 10.335938 -25.597656 "/></g></g></g><g fill="#1fbdcd" fill-opacity="1"><g transform="translate(212.291883, 289.122749)"><g><path d="M 9.34375 -3.007812 L 4.382812 -3.007812 C 4.289062 -4.894531 4.253906 -8.382812 4.382812 -11.230469 L 6.496094 -11.230469 C 7.199219 -11.230469 7.933594 -11.070312 8.320312 -10.972656 C 8.320312 -11.359375 8.320312 -12.09375 8.320312 -12.734375 L 8.320312 -14.492188 C 7.933594 -14.367188 7.199219 -14.207031 6.496094 -14.207031 L 4.382812 -14.207031 C 4.382812 -14.941406 4.320312 -14.972656 4.320312 -18.109375 C 4.320312 -20.316406 4.351562 -21.980469 4.382812 -22.621094 L 9.308594 -22.621094 C 10.046875 -22.621094 10.78125 -22.460938 11.132812 -22.332031 C 11.132812 -22.714844 11.132812 -23.453125 11.132812 -24.09375 L 11.132812 -25.851562 C 10.78125 -25.757812 10.046875 -25.597656 9.308594 -25.597656 L 4.640625 -25.597656 C 4.253906 -25.597656 3.519531 -25.597656 2.878906 -25.597656 L 1.121094 -25.597656 C 1.246094 -25.242188 1.40625 -24.507812 1.40625 -23.773438 C 1.40625 -22.683594 1.441406 -19.484375 1.441406 -14.621094 C 1.441406 -5.34375 1.40625 -2.078125 1.40625 -1.792969 C 1.40625 -1.183594 1.34375 -0.351562 1.214844 0 L 1.3125 0 C 1.40625 0 1.566406 0 1.792969 0 L 9.34375 0 C 10.078125 0 10.8125 0.160156 11.199219 0.257812 C 11.199219 -0.128906 11.199219 -0.863281 11.199219 -1.503906 L 11.199219 -3.261719 C 10.8125 -3.167969 10.078125 -3.007812 9.34375 -3.007812 Z M 9.34375 -3.007812 "/></g></g></g></svg>